# xmcd
#
# Track frame offsets:
#	182
#	13762
#	26932
#	39025
#	50165
#	63590
#	80090
#	91565
#	107125
#	119245
#	135757
#	153147
#	171320
#	189262
#
# Disc length: 2675 seconds
#
# Revision: 2
# Processed by: cddbd v1.5.1PL2 Copyright (c) Steve Scherf et al.
# Submitted via: dBpowerAMP V4.0
#
DISCID=b30a710e
DTITLE=Oak Ridge Boys - Collection- Oak Ridge Boys
DYEAR=1992
DGENRE=country
TTITLE0=Leavin' Louisanna In The Broad Daylight
TTITLE1=Y'all Come Back Saloon
TTITLE2=Elvira
TTITLE3=Trying To Love Two Women
TTITLE4=You're The One
TTITLE5=I'll Be True To You
TTITLE6=Cryin' Again
TTITLE7=I Wish You Could Have Turned My Head
TTITLE8=American Made
TTITLE9=Fancy Free
TTITLE10=Love Song
TTITLE11=I Guess It Never Hurts To Hurt Sometimes
TTITLE12=It Takes A Little Rain
TTITLE13=Thank God For Kids
EXTD=
EXTT0=
EXTT1=
EXTT2=
EXTT3=
EXTT4=
EXTT5=
EXTT6=
EXTT7=
EXTT8=
EXTT9=
EXTT10=
EXTT11=
EXTT12=
EXTT13=
PLAYORDER=
